<svg xmlns="http://www.w3.org/2000/svg" width="125" height="70" viewBox="290 -260 652 952"><g transform="matrix(0.9400000000000001,0,0,0.9400000000000001,-200.55844482421872,66.55856781005852)"><path fill="#9C5789" d="M170.667 0C76.41 0 0 76.41 0 170.667s76.41 170.667 170.667 170.667 170.667-76.41 170.667-170.667S264.923 0 170.667 0zm0 298.667c-70.692 0-128-57.308-128-128s57.308-128 128-128 128 57.308 128 128-57.308 128-128 128z" opacity="1" data-original="#000000"></path></g><g transform="matrix(0.8400000000000001,0,0,0.8400000000000001,-160.55844482421872,108.55856781005852)"><path d="M414.6 0c-20.029 0-36.265 16.237-36.265 36.265v129.302a193.934 193.934 0 0 0-122.341-43.31c-107.453 0-194.866 87.419-194.866 194.866s87.419 194.866 194.866 194.866 194.866-87.42 194.866-194.867V36.265C450.86 16.239 434.627.003 414.6 0zM255.994 439.468c-67.564 0-122.335-54.771-122.335-122.335s54.771-122.335 122.335-122.335 122.335 54.771 122.335 122.335c-.079 67.531-54.804 122.256-122.335 122.335z" opacity="1" data-original="#000000" fill="#888888" transform="translate(290 -190)"></path></g><g transform="matrix(0.9400000000000001,0,0,0.9400000000000001,-85.55844482421872,66.55856781005852)"><path fill="#888888" d="M170.667 0C76.41 0 0 76.41 0 170.667s76.41 170.667 170.667 170.667 170.667-76.41 170.667-170.667S264.923 0 170.667 0zm0 298.667c-70.692 0-128-57.308-128-128s57.308-128 128-128 128 57.308 128 128-57.308 128-128 128z" opacity="1" data-original="#000000" transform="translate(600 0)"></path></g><g transform="matrix(0.9400000000000001,0,0,0.9400000000000001,-76.55844482421872,66.55856781005852)"><path fill="#888888" d="M170.667 0C76.41 0 0 76.41 0 170.667s76.41 170.667 170.667 170.667 170.667-76.41 170.667-170.667S264.923 0 170.667 0zm0 298.667c-70.692 0-128-57.308-128-128s57.308-128 128-128 128 57.308 128 128-57.308 128-128 128z" opacity="1" data-original="#000000" transform="translate(950 0)"></path></g></svg>