<svg width="50" height="65" viewBox="0 0 50 65" fill="none" xmlns="http://www.w3.org/2000/svg">
<path d="M22.4187 0H32.8246V47.6938C27.4945 48.7016 23.5707 49.0984 19.3254 49.0984C6.61602 49.0852 0 43.407 0 32.5023C0 21.9957 7.01758 15.1766 17.8922 15.1766C19.5797 15.1766 20.8652 15.3094 22.4187 15.7074V0ZM22.7836 24.3023C21.5648 23.9039 20.5605 23.7715 19.2746 23.7715C14.0117 23.7715 10.9715 26.982 10.9715 32.6082C10.9715 38.0855 13.8777 41.1102 19.2078 41.1102C20.3594 41.1102 21.2969 41.0457 22.7836 40.8465V24.3023Z" fill="#2BA977"/>
<path d="M49.8415 16.457V40.3367C49.8415 48.5602 49.2254 52.5148 47.4172 55.9246C45.7297 59.2023 43.5067 61.2695 38.9133 63.5523L29.2571 59.0023C33.8508 56.8676 36.0739 54.9813 37.4938 52.1023C38.9801 49.1586 39.4489 45.7488 39.4489 36.7813V16.457H49.8415ZM38.4 0H48.8059V10.5734H38.4V0Z" fill="#2BA977"/>
</svg>
