<svg width="65" height="60" viewBox="0 0 65 60" fill="none" xmlns="http://www.w3.org/2000/svg">
<path d="M30.8594 7.73438H37.3047V14.1797H30.8594V7.73438Z" fill="#0175BC"/>
<path d="M30.8594 13.5352H37.3047V14.1797H30.8594V13.5352Z" fill="#010101" fill-opacity="0.0627451"/>
<path opacity="0.2" d="M30.8594 7.73438H37.3047V8.37891H30.8594V7.73438Z" fill="white"/>
<path d="M30.8594 15.4688H37.3047V21.9141H30.8594V15.4688Z" fill="#0175BC"/>
<path opacity="0.1" d="M30.8594 21.2695H37.3047V21.9141H30.8594V21.2695Z" fill="#010101"/>
<path opacity="0.2" d="M30.8594 15.4688H37.3047V16.1133H30.8594V15.4688Z" fill="white"/>
<path d="M30.8594 23.2031H37.3047V29.6484H30.8594V23.2031Z" fill="#0175BC"/>
<path opacity="0.1" d="M30.8594 29.0039H37.3047V29.6484H30.8594V29.0039Z" fill="#010101"/>
<path opacity="0.2" d="M30.8594 23.2031H37.3047V23.8477H30.8594V23.2031Z" fill="white"/>
<path d="M23.125 15.4688H29.5703V21.9141H23.125V15.4688Z" fill="#0175BC"/>
<path opacity="0.1" d="M23.125 21.2695H29.5703V21.9141H23.125V21.2695Z" fill="#010101"/>
<path opacity="0.2" d="M23.125 15.4688H29.5703V16.1133H23.125V15.4688Z" fill="white"/>
<path d="M23.125 23.2031H29.5703V29.6484H23.125V23.2031Z" fill="#0175BC"/>
<path opacity="0.1" d="M23.125 29.0039H29.5703V29.6484H23.125V29.0039Z" fill="#010101"/>
<path opacity="0.2" d="M23.125 23.2031H29.5703V23.8477H23.125V23.2031Z" fill="white"/>
<path d="M15.3906 15.4688H21.8359V21.9141H15.3906V15.4688Z" fill="#0175BC"/>
<path opacity="0.1" d="M15.3906 21.2695H21.8359V21.9141H15.3906V21.2695Z" fill="#010101"/>
<path opacity="0.2" d="M15.3906 15.4688H21.8359V16.1133H15.3906V15.4688Z" fill="white"/>
<path d="M15.3906 23.2031H21.8359V29.6484H15.3906V23.2031Z" fill="#0175BC"/>
<path opacity="0.1" d="M15.3906 29.0039H21.8359V29.6484H15.3906V29.0039Z" fill="#010101"/>
<path opacity="0.2" d="M15.3906 23.2031H21.8359V23.8477H15.3906V23.2031Z" fill="white"/>
<path d="M7.65625 23.2031H14.1016V29.6484H7.65625V23.2031Z" fill="#0175BC"/>
<path opacity="0.1" d="M7.65625 29.0039H14.1016V29.6484H7.65625V29.0039Z" fill="#010101"/>
<path opacity="0.2" d="M7.65625 23.2031H14.1016V23.8477H7.65625V23.2031Z" fill="white"/>
<path d="M38.5938 23.2031H45.0391V29.6484H38.5938V23.2031Z" fill="#0175BC"/>
<path opacity="0.1" d="M38.5938 29.0039H45.0391V29.6484H38.5938V29.0039Z" fill="#010101"/>
<path opacity="0.2" d="M38.5938 23.2031H45.0391V23.8477H38.5938V23.2031Z" fill="white"/>
<path d="M63.3306 28.9345C63.1502 28.8183 59.4686 26.4928 55.9858 27.0473C55.1425 23.5153 51.9044 21.3188 51.7473 21.2128L50.8502 20.6175L50.1025 21.3909C49.9269 21.5857 49.7746 21.8003 49.6487 22.0303C49.0684 23.0409 48.2308 25.3017 48.6948 29.4811C48.7197 29.6711 48.7036 29.8642 48.6476 30.0474C48.5916 30.2306 48.4969 30.3997 48.37 30.5433C48.2583 30.6678 48.1216 30.7673 47.9687 30.8353C47.8159 30.9032 47.6504 30.9381 47.4831 30.9375H2.5V32.2266C2.5 52.0059 16.9244 54.1406 23.125 54.1406C39.0911 54.1406 50.1902 44.4417 55.0347 35.8955C61.4181 34.8769 63.6273 30.8681 63.7436 30.6773L64.375 29.6072L63.3306 28.9345Z" fill="#0175BC"/>
<path opacity="0.2" d="M47.4831 30.9375H2.5V31.582H47.4831C47.6504 31.5826 47.8159 31.5477 47.9687 31.4798C48.1216 31.4119 48.2583 31.3123 48.37 31.1878C48.4966 31.0445 48.5911 30.8758 48.6471 30.693C48.7031 30.5102 48.7194 30.3176 48.6948 30.128C48.6794 29.9939 48.6817 29.8884 48.6691 29.7595C48.6595 30.0468 48.5543 30.3227 48.37 30.5433C48.2583 30.6678 48.1216 30.7673 47.9687 30.8353C47.8159 30.9032 47.6504 30.9381 47.4831 30.9375ZM63.3306 28.9345C63.1502 28.8183 59.4686 26.4928 55.9858 27.0473C55.1425 23.5153 51.9044 21.3188 51.7473 21.2128L50.8502 20.6175L50.1025 21.3909C50.0509 21.4448 49.9398 21.5714 49.7983 21.788C49.3136 22.5356 48.4834 24.3272 48.5762 27.7097C48.6072 23.835 49.8859 22.2595 50.1025 22.0378L50.8502 21.262L51.7473 21.8573C51.9044 21.9633 55.1425 24.1622 55.9858 27.6919C59.4662 27.1373 64.375 29.6072 64.375 29.6072L63.3306 28.9345Z" fill="white"/>
<path opacity="0.1" d="M63.7436 30.0328C63.6273 30.2231 61.4181 34.2347 55.0342 35.2505C50.1906 43.7977 39.092 53.4961 23.125 53.4961C16.9248 53.4961 2.5 51.3614 2.5 31.582V32.2266C2.5 52.0059 16.9244 54.1406 23.125 54.1406C39.0911 54.1406 50.1902 44.4417 55.0347 35.8955C61.4181 34.8769 63.6273 30.8681 63.7436 30.6773L64.375 29.6072L64.0994 29.4291L63.7436 30.0328Z" fill="#010101"/>
<path d="M37.3047 15.4688H30.8594V21.9141H37.3047V15.4688ZM37.3047 23.2031H30.8594V29.6484H37.3047V23.2031ZM45.0391 23.2031H38.5938V29.6484H45.0391V23.2031ZM37.3047 7.73438H30.8594V14.1797H37.3047V7.73438ZM29.5703 15.4688H23.125V21.9141H29.5703V15.4688ZM14.1016 23.2031H7.65625V29.6484H14.1016V23.2031ZM63.3309 28.9343C63.1504 28.8183 59.4688 26.4928 55.9858 27.0471C55.1427 23.5151 51.9046 21.3185 51.7473 21.2128L50.8502 20.6173L50.1025 21.3907C49.9268 21.5853 49.7745 21.7999 49.6488 22.0301C49.0687 23.0407 48.2308 25.3017 48.6948 29.4809C48.7197 29.6708 48.7036 29.864 48.6476 30.0472C48.5916 30.2304 48.4969 30.3995 48.37 30.543C48.2584 30.6676 48.1216 30.7672 47.9688 30.8352C47.8159 30.9031 47.6504 30.938 47.4831 30.9375H2.5V32.2266C2.5 52.0059 16.9246 54.1406 23.125 54.1406C39.0913 54.1406 50.1902 44.4417 55.0345 35.8952C61.4179 34.8769 63.6273 30.8679 63.7434 30.6771L64.375 29.6072L63.3309 28.9343ZM29.5703 23.2031H23.125V29.6484H29.5703V23.2031ZM21.8359 15.4688H15.3906V21.9141H21.8359V15.4688ZM21.8359 23.2031H15.3906V29.6484H21.8359V23.2031Z" fill="url(#paint0_linear_229_818)"/>
<defs>
<linearGradient id="paint0_linear_229_818" x1="6.94984" y1="21.3984" x2="57.262" y2="44.8594" gradientUnits="userSpaceOnUse">
<stop stop-color="white" stop-opacity="0.2"/>
<stop offset="1" stop-color="white" stop-opacity="0"/>
</linearGradient>
</defs>
</svg>
