<svg width="60" height="60" viewBox="0 0 60 60" fill="none" xmlns="http://www.w3.org/2000/svg">
<path d="M28.8118 6C27.23 6 26.0383 6.19653 25.0665 6.89297C24.0947 7.58941 23.5185 8.54602 22.6454 9.87656C22.0848 10.7309 20.6751 13.2477 18.7243 16.7789C16.7735 20.3101 14.3457 24.7626 11.9743 29.1586C9.60297 33.5546 7.28874 37.8913 5.56416 41.1938C4.70187 42.845 3.98713 44.2369 3.48291 45.2555C3.2308 45.7648 3.03149 46.1797 2.8876 46.5C2.81565 46.6601 2.75829 46.7956 2.70947 46.9242C2.66066 47.0528 2.58057 47.0106 2.58057 47.5289C2.58057 49.0881 3.04703 50.7015 4.38525 52.6406H4.38291C5.13891 53.7391 6.16381 54.6283 7.40869 55.0148C8.65358 55.4014 10.1864 55.1215 11.2595 54.0258C11.6584 53.6188 11.8333 53.2806 12.272 52.5984C12.7106 51.9163 13.2751 51.0072 13.9384 49.9266C15.265 47.7653 16.9855 44.9172 18.8462 41.8664C22.5676 35.7648 26.8686 28.8347 29.597 25.118L29.6298 25.0734C29.8184 24.7941 29.7048 24.8953 29.9087 24.8953C30.1157 24.8953 30.2192 24.8734 30.3634 25.0828L30.3751 25.0969L30.3845 25.1109C33.1144 28.83 37.4185 35.7598 41.1446 41.8617C43.0077 44.9127 44.7311 47.7629 46.0595 49.9242C46.7237 51.0049 47.289 51.9139 47.7282 52.5961C48.1674 53.2783 48.3449 53.6172 48.7431 54.0234C49.8156 55.1178 51.3443 55.3984 52.5892 55.0125C53.834 54.6266 54.8606 53.7374 55.6173 52.6383C56.9556 50.6977 57.422 49.0827 57.422 47.5266C57.422 47.0088 57.3395 47.0505 57.2907 46.9219C57.2419 46.7932 57.1845 46.6578 57.1126 46.4977C56.9687 46.1773 56.7694 45.7625 56.5173 45.2531C56.0131 44.2344 55.2983 42.8427 54.436 41.1914C52.7115 37.8888 50.3994 33.552 48.0282 29.1563C45.657 24.7605 43.2287 20.3069 41.2782 16.7766C39.3282 13.2471 37.9205 10.7358 37.3595 9.88125V9.87891C36.4786 8.53611 35.848 7.56398 34.8446 6.87891C33.8408 6.19351 32.6324 6 31.0478 6H28.8118ZM28.8118 8.4H31.0478C32.4523 8.4 33.0249 8.54421 33.4899 8.86172C33.955 9.17923 34.484 9.87465 35.3509 11.1961H35.3532C35.7027 11.7282 37.2308 14.4162 39.1759 17.9367C41.1209 21.4572 43.5464 25.906 45.9142 30.2953C48.2819 34.6846 50.5944 39.0164 52.3103 42.3023C53.1682 43.9453 53.876 45.3277 54.3657 46.3172C54.6106 46.8119 54.8022 47.2096 54.9235 47.4797C54.9614 47.5639 54.978 47.6073 55.0009 47.6625C54.9824 48.7486 54.7522 49.6661 53.6415 51.2766C53.1334 52.0146 52.436 52.5476 51.879 52.7203C51.322 52.893 50.9703 52.8674 50.4563 52.343C50.5867 52.4759 50.1677 51.95 49.7462 51.2953C49.3247 50.6406 48.7658 49.7422 48.1056 48.668C46.7851 46.5195 45.0595 43.6689 43.1931 40.6125C39.4654 34.508 35.1917 27.6118 32.3345 23.7164C31.619 22.685 30.4586 22.4953 29.9087 22.4953C29.3593 22.4953 28.2904 22.8039 27.6563 23.7094L27.661 23.6977C27.6579 23.702 27.6526 23.7121 27.6493 23.7164C27.6468 23.72 27.6423 23.7198 27.6399 23.7234L27.429 24.0305V24.0586C24.575 27.9914 20.4463 34.6327 16.7978 40.6148C14.9337 43.6711 13.211 46.522 11.8923 48.6703C11.2329 49.7445 10.6749 50.6454 10.254 51.3C9.83311 51.9546 9.41253 52.4793 9.54385 52.3453V52.3477C9.02927 52.8731 8.67811 52.8956 8.12119 52.7227C7.56428 52.5497 6.86864 52.0165 6.36104 51.2789C5.25018 49.6692 5.02007 48.7544 5.00166 47.6648C5.02453 47.6098 5.03904 47.5681 5.07666 47.4844C5.19799 47.2143 5.38959 46.8142 5.63447 46.3195C6.12424 45.3302 6.83432 43.9476 7.69229 42.3047C9.40821 39.0188 11.7181 34.6873 14.086 30.2977C16.4539 25.908 18.8789 21.4604 20.8243 17.9391C22.7697 14.4177 24.3009 11.7284 24.6517 11.1938C25.5258 9.8615 26.0389 9.15117 26.4657 8.84531C26.8925 8.53946 27.4105 8.4 28.8118 8.4Z" fill="white"/>
</svg>
