<svg width="60" height="60" viewBox="0 0 60 60" fill="none" xmlns="http://www.w3.org/2000/svg">
<g clip-path="url(#clip0_229_786)">
<path d="M28.035 0.0157553C27.9061 0.027474 27.4959 0.068724 27.1261 0.0982552C18.6042 0.866068 10.6214 5.46404 5.56594 12.5304C2.75062 16.4595 0.950156 20.9164 0.27 25.6367C0.0295312 27.2848 0 27.7714 0 30.0054C0 32.24 0.0295312 32.7265 0.27 34.3742C1.90031 45.6397 9.91781 55.1047 20.7919 58.6114C22.7391 59.239 24.7917 59.667 27.1261 59.9248C28.0355 60.0247 31.965 60.0247 32.8739 59.9248C36.9033 59.4795 40.3167 58.4825 43.6833 56.764C44.1994 56.5001 44.2992 56.4298 44.2289 56.3712C44.182 56.3361 41.9822 53.3862 39.3431 49.8209L34.5455 43.3409L28.5338 34.445C25.2258 29.554 22.5042 25.5547 22.4808 25.5547C22.4573 25.549 22.4339 29.5015 22.4222 34.3278C22.4048 42.7779 22.3987 43.1183 22.2933 43.3175C22.1409 43.6048 22.0233 43.722 21.7772 43.8514C21.5897 43.9451 21.4256 43.9625 20.5397 43.9625H19.5248L19.2553 43.7923C19.0881 43.6876 18.9523 43.5398 18.862 43.3643L18.7392 43.1004L18.7509 31.3428L18.7683 19.579L18.9502 19.3503C19.0439 19.227 19.2436 19.069 19.3842 18.9926C19.6247 18.8754 19.7184 18.8637 20.7333 18.8637C21.9295 18.8637 22.1292 18.9106 22.4395 19.2504C22.5277 19.3442 25.7831 24.2473 29.677 30.1522C33.5719 36.0575 38.8973 44.1209 41.513 48.0795L46.2637 55.2748L46.5042 55.1164C48.6333 53.7326 50.8856 51.762 52.6683 49.7093C56.4633 45.3523 58.9092 40.039 59.73 34.3747C59.9705 32.7265 60 32.24 60 30.0059C60 27.7714 59.9705 27.2848 59.73 25.6372C58.0997 14.3717 50.0822 4.90669 39.2081 1.39997C37.2905 0.777943 35.2491 0.349974 32.9625 0.0921615C32.3991 0.0335677 28.5225 -0.0311197 28.0359 0.0157553M40.3172 18.1601C40.5984 18.3008 40.8277 18.5703 40.9097 18.852C40.9566 19.0043 40.9683 22.2645 40.9566 29.6126L40.9387 40.1567L39.0797 37.3067L37.2145 34.4567V26.7922C37.2145 21.837 37.238 19.0512 37.2731 18.9162C37.3669 18.5881 37.5722 18.3303 37.8539 18.1775C38.0944 18.0542 38.182 18.0425 39.1031 18.0425C39.9712 18.0425 40.1236 18.0547 40.3172 18.1601Z" fill="white"/>
</g>
<defs>
<clipPath id="clip0_229_786">
<rect width="60" height="60" fill="white"/>
</clipPath>
</defs>
</svg>
