<svg width="120" height="50" viewBox="0 0 120 50" fill="none" xmlns="http://www.w3.org/2000/svg">
<g clip-path="url(#clip0_229_796)">
<path d="M13.9582 18.75C6.59453 18.75 0.625 24.7195 0.625 32.0832C0.625 39.4469 6.59453 45.4168 13.9582 45.4168C21.3219 45.4168 27.2918 39.4473 27.2918 32.0832C27.2918 24.7191 21.3223 18.75 13.9582 18.75ZM13.9582 42.0832C8.43555 42.0832 3.9582 37.6063 3.9582 32.0832C3.9582 26.5602 8.43555 22.0832 13.9582 22.0832C19.4809 22.0832 23.9582 26.5605 23.9582 32.0832C23.9582 37.6059 19.4812 42.0832 13.9582 42.0832Z" fill="#9C5789" stroke="#9C5789" stroke-width="1.5625"/>
<path d="M56.4532 6.25C55.7018 6.25 54.9812 6.5485 54.4498 7.07983C53.9185 7.61115 53.62 8.33179 53.62 9.0832V19.1848C50.917 16.9931 47.5421 15.7983 44.0622 15.8012C35.6677 15.8012 28.8384 22.6309 28.8384 31.0254C28.8384 39.4199 35.6677 46.2492 44.0622 46.2492C52.4567 46.2492 59.286 39.4195 59.286 31.025V9.0832C59.286 8.33186 58.9876 7.61128 58.4563 7.07996C57.9251 6.54865 57.2046 6.2501 56.4532 6.25ZM44.0622 40.5836C38.7837 40.5836 34.5048 36.3043 34.5048 31.0262C34.5048 25.748 38.7837 21.4687 44.0622 21.4687C49.3407 21.4687 53.6196 25.7477 53.6196 31.0262C53.6134 36.302 49.338 40.5769 44.0622 40.5836Z" fill="#888888"/>
<path d="M74.8957 18.75C67.532 18.75 61.5625 24.7195 61.5625 32.0832C61.5625 39.4469 67.532 45.4168 74.8957 45.4168C82.2594 45.4168 88.2293 39.4473 88.2293 32.0832C88.2293 24.7191 82.2598 18.75 74.8957 18.75ZM74.8957 42.0832C69.373 42.0832 64.8957 37.6063 64.8957 32.0832C64.8957 26.5602 69.373 22.0832 74.8957 22.0832C80.4184 22.0832 84.8957 26.5605 84.8957 32.0832C84.8957 37.6059 80.4188 42.0832 74.8957 42.0832ZM104.583 18.75C97.2195 18.75 91.25 24.7195 91.25 32.0832C91.25 39.4469 97.2195 45.4168 104.583 45.4168C111.947 45.4168 117.917 39.4473 117.917 32.0832C117.917 24.7191 111.947 18.75 104.583 18.75ZM104.583 42.0832C99.0605 42.0832 94.5832 37.6063 94.5832 32.0832C94.5832 26.5602 99.0605 22.0832 104.583 22.0832C110.106 22.0832 114.583 26.5605 114.583 32.0832C114.583 37.6059 110.106 42.0832 104.583 42.0832Z" fill="#888888" stroke="#888888" stroke-width="1.5625"/>
</g>
<defs>
<clipPath id="clip0_229_796">
<rect width="120" height="50" fill="white"/>
</clipPath>
</defs>
</svg>
