<svg width="60" height="60" viewBox="0 0 60 60" fill="none" xmlns="http://www.w3.org/2000/svg">
<g clip-path="url(#clip0_229_805)">
<path d="M44.3653 43.6355C44.7469 40.4587 44.6325 39.9933 46.9983 40.5075L47.5988 40.5605C49.418 40.643 51.7978 40.2675 53.1957 39.6183C56.205 38.2219 57.99 35.8903 55.0224 36.503C48.2536 37.8994 47.7877 35.6077 47.7877 35.6077C54.9357 25.0017 57.9235 11.5392 55.3444 8.24391C48.3099 -0.745311 36.1332 3.50578 35.9297 3.61594L35.865 3.62813C34.5277 3.35063 33.031 3.18469 31.3491 3.1575C28.2863 3.10688 25.9617 3.96047 24.1988 5.29781C24.1988 5.29781 2.47597 -3.65156 3.48659 16.5525C3.70128 20.8509 9.64737 49.0753 16.7386 40.5502C19.3308 37.433 21.8353 34.7967 21.8353 34.7967C23.0794 35.6231 24.5682 36.0445 26.13 35.8936L26.251 35.7905C26.2135 36.1777 26.2299 36.5559 26.2992 37.0045C24.4725 39.0455 25.0092 39.4041 21.3567 40.1555C17.6616 40.9172 19.8328 42.2733 21.2499 42.6277C22.9678 43.057 26.9433 43.6659 29.6297 39.9056L29.5228 40.3345C30.2396 40.9078 30.1913 44.4553 30.2925 46.9898C30.3942 49.5248 30.5644 51.8902 31.081 53.2847C31.5975 54.6792 32.2069 58.2708 37.0074 57.2419C41.0189 56.3827 44.0864 55.1452 44.3658 43.635" fill="black"/>
<path d="M35.4416 59.9377C33.2596 59.9377 31.8351 59.0902 30.9684 58.2717C29.6657 57.0431 29.1538 55.4738 28.8477 54.5358C28.7999 54.3891 28.7545 54.2503 28.7207 54.1589C28.1071 52.5028 27.9004 50.1356 27.7776 47.0911C27.7598 46.6411 27.7462 46.1597 27.7326 45.6684C27.7241 45.3656 27.7143 45.0155 27.7016 44.6484C25.6382 45.5531 23.2204 45.7148 20.6385 45.0689C19.484 44.7802 18.2873 44.1966 17.5424 43.3008C15.486 45.0098 13.5323 44.7586 12.456 44.4C10.5346 43.7592 8.82321 41.9742 7.22337 38.9438C6.09556 36.8063 5.00524 34.0238 3.9829 30.6736C2.20306 24.8447 1.07337 18.6984 0.972587 16.6781C0.654305 10.3163 2.37509 5.76094 6.08665 3.13875C9.15227 0.973129 13.3429 0.308441 18.5423 1.16203C20.7534 1.52485 22.6673 2.09344 23.8602 2.49704C26.0146 1.21829 28.5379 0.59391 31.3902 0.641722C32.9127 0.666566 34.3635 0.799222 35.7131 1.03735C37.1624 0.587816 39.9421 -0.0374963 43.1052 0.00187867C49.0382 0.0726599 53.9554 2.38641 57.3262 6.69328C59.6334 9.64125 58.7756 15.4556 57.6496 19.8136C56.3887 24.697 54.1977 29.8852 51.5034 34.4344C52.2173 34.4142 53.1956 34.3106 54.5137 34.0388C57.802 33.3595 58.7146 35.2936 58.9157 35.9025C59.9352 38.9883 55.6063 41.2739 54.2545 41.9011C52.5449 42.6952 49.7615 43.178 47.4843 43.0744L47.3788 43.0673L46.9696 43.0313L46.9335 43.3411L46.8777 43.8164C46.7249 49.6833 45.8807 53.407 44.1449 55.8788C42.3084 58.4939 39.7696 59.2238 37.5341 59.7028C36.7701 59.8669 36.074 59.9377 35.4416 59.9377ZM31.0945 38.37C32.5307 39.5184 32.6545 41.6147 32.7632 45.5283C32.7768 45.9984 32.7895 46.4588 32.8068 46.8895C32.8584 48.1683 32.9779 51.1641 33.4401 52.4105C33.5085 52.5947 33.5685 52.7794 33.6323 52.9748C34.154 54.5728 34.3701 55.2342 36.4799 54.7819C38.3404 54.3834 39.2943 54.0295 40.0265 52.9866C41.1224 51.4256 41.736 48.2592 41.8499 43.5741L44.3643 43.635L41.8673 43.3355L41.9348 42.7598C42.1532 40.8839 42.3257 39.4027 43.6645 38.4464C44.5091 37.8427 45.4593 37.762 46.2834 37.837C45.6032 37.1442 45.3881 36.4331 45.322 36.1088L45.1124 35.0756L45.7012 34.2014C48.8198 29.5748 51.3956 23.8861 52.7676 18.5944C54.1677 13.1944 53.7731 10.3341 53.3629 9.795C47.7702 2.64891 38.0385 5.56594 36.966 5.91703L36.7781 6.01922L35.8359 6.19266L35.3531 6.09235C34.1296 5.83828 32.7684 5.69766 31.3082 5.67375C29.0413 5.6386 27.2132 6.16969 25.7188 7.30313L24.5713 8.1736L23.2396 7.62516C20.6352 6.56063 12.9904 4.4161 8.98399 7.25485C6.77712 8.81813 5.77306 11.9044 5.99946 16.4273C6.07774 17.993 7.14087 23.8706 8.89493 29.5233C11.3043 37.2905 13.431 39.4481 14.0352 39.6234C14.1112 39.592 14.3788 39.4523 14.804 38.9414C16.481 36.9311 18.2174 34.971 20.0109 33.0638L21.4668 31.5314L23.2274 32.7014C23.8331 33.1041 24.4991 33.3389 25.1826 33.3947L29.361 29.8345L28.7549 36.0361C28.7432 36.1533 28.7381 36.3141 28.7854 36.6197L28.9673 37.7958L28.1737 38.6827L28.1521 38.7066L30.1045 39.6075L31.0945 38.37Z" fill="black"/>
<path d="M55.0228 36.503C48.2531 37.8994 47.7876 35.6072 47.7876 35.6072C54.9356 25.0013 57.9234 11.5383 55.3448 8.24344C48.3103 -0.745311 36.1331 3.50578 35.9296 3.61641L35.8645 3.62813C34.5271 3.35016 33.0304 3.18469 31.3481 3.1575C28.2848 3.10735 25.9612 3.96047 24.1978 5.29735C24.1978 5.29735 2.47494 -3.65156 3.4851 16.5525C3.70025 20.8509 9.64588 49.0753 16.7376 40.5502C19.3298 37.433 21.8338 34.7972 21.8338 34.7972C23.0779 35.6236 24.5671 36.045 26.1281 35.8936L26.2499 35.7905C26.212 36.1777 26.2293 36.5564 26.2982 37.0045C24.471 39.0459 25.0082 39.4045 21.3557 40.1559C17.6606 40.9177 19.8313 42.2733 21.2488 42.6277C22.9673 43.0575 26.9428 43.6664 29.6287 39.9061L29.5218 40.335C30.2376 40.9083 30.7401 44.0644 30.6562 46.9256C30.5718 49.7864 30.5156 51.7505 31.0795 53.2847C31.6434 54.8189 32.2054 58.2713 37.0063 57.2423C41.0184 56.3827 43.0973 54.1547 43.386 50.4384C43.5913 47.7966 44.0563 48.187 44.0854 45.825L44.4581 44.707C44.8874 41.1258 44.526 39.9703 46.9978 40.5075L47.5982 40.5605C49.4174 40.643 51.7982 40.268 53.1956 39.6183C56.2049 38.2219 57.989 35.8903 55.0223 36.503H55.0228Z" fill="#336791"/>
<path d="M35.6814 58.3781C31.6421 58.3781 30.3629 55.1808 29.8398 53.8725C29.0729 51.9548 28.9065 44.7862 29.0814 38.5327C29.088 38.3104 29.1823 38.0999 29.3438 37.947C29.5053 37.7942 29.7207 37.7115 29.9429 37.717C30.0531 37.7201 30.1616 37.7448 30.2623 37.7898C30.3629 37.8348 30.4537 37.8992 30.5295 37.9793C30.6052 38.0594 30.6644 38.1536 30.7037 38.2566C30.743 38.3596 30.7617 38.4693 30.7585 38.5795C30.5635 45.5442 30.8382 51.8508 31.3975 53.2495C32.2642 55.4161 33.5795 57.3112 37.2934 56.5153C40.8756 55.747 42.1496 54.4575 42.7464 50.9953C43.2029 48.3497 44.1057 40.8169 44.2178 39.3281C44.2345 39.1064 44.3387 38.9004 44.5072 38.7553C44.6758 38.6103 44.8951 38.5382 45.1168 38.5547C45.3387 38.5715 45.5447 38.6756 45.6898 38.8443C45.8348 39.013 45.9069 39.2324 45.8903 39.4542C45.774 41.0048 44.874 48.5311 44.3996 51.2803C43.6914 55.388 41.8604 57.2512 37.6445 58.1555C36.9268 58.3092 36.2739 58.3781 35.6814 58.3781ZM13.9895 42.8986C13.6324 42.8983 13.2777 42.8397 12.9395 42.7252C10.3192 41.8509 7.83011 37.6031 5.53933 30.0994C3.79933 24.3984 2.69683 18.4458 2.60027 16.5103C2.31246 10.7587 3.79652 6.68719 7.01121 4.40953C13.3632 -0.0904696 24.0315 4.18828 24.4825 4.37203C24.6884 4.45629 24.8524 4.61888 24.9384 4.82404C25.0245 5.02921 25.0256 5.26015 24.9414 5.46609C24.8572 5.67209 24.6946 5.83621 24.4895 5.92236C24.2843 6.00851 24.0533 6.00963 23.8473 5.92547C23.7245 5.87531 13.5704 1.81453 7.97824 5.78016C5.26418 7.70531 4.01824 11.287 4.27558 16.4264C4.35668 18.0516 5.38465 23.8467 7.14433 29.61C9.17683 36.2705 11.4826 40.4709 13.4701 41.1337C13.7748 41.2355 14.7029 41.5448 16.0454 39.93C17.6447 38.0094 19.3038 36.1394 21.0203 34.3228C21.1743 34.1623 21.3857 34.0696 21.6081 34.0649C21.8305 34.0602 22.0456 34.1441 22.2062 34.298C22.3668 34.4519 22.4596 34.6633 22.4644 34.8857C22.4691 35.1081 22.3854 35.3232 22.2315 35.4839C22.2081 35.5078 19.8765 37.9453 17.3354 41.0025C16.1167 42.4678 14.9448 42.8986 13.9895 42.8986ZM47.7404 36.3623C47.5883 36.3622 47.439 36.3207 47.3087 36.2423C47.1783 36.1638 47.0717 36.0514 47.0003 35.9171C46.9289 35.7828 46.8953 35.6315 46.9033 35.4796C46.9112 35.3276 46.9603 35.1807 47.0453 35.0545C54.257 24.3534 56.7986 11.437 54.6376 8.67562C51.9179 5.20031 48.0765 3.38344 43.2203 3.27609C39.6278 3.19687 36.7543 4.11562 36.2814 4.27734C36.2414 4.29698 36.2 4.31374 36.1576 4.3275C35.649 4.48687 35.2581 4.20703 35.1104 3.87984C35.0263 3.69254 35.0136 3.48094 35.0748 3.28493C35.1359 3.08892 35.2666 2.92205 35.4423 2.81578C35.7564 2.62641 39.0573 1.55344 43.0103 1.59516C48.4304 1.65281 52.9079 3.74344 55.9586 7.64203C58.0173 10.2727 56.6584 16.6772 55.9787 19.3092C54.5176 24.967 51.7684 31.0477 48.4365 35.992C48.3597 36.1061 48.2561 36.1995 48.1347 36.264C48.0133 36.3286 47.8779 36.3624 47.7404 36.3623Z" fill="white"/>
<path d="M48.1103 41.3231C46.8635 41.3231 45.7446 41.1473 45.0747 40.7461C44.3693 40.3233 44.2347 39.7458 44.2169 39.4392C44.0341 36.2227 45.7558 35.5852 46.7107 35.3095C46.5897 35.1356 46.4294 34.9359 46.2649 34.7302C45.7272 34.0584 44.9913 33.1387 44.4227 31.7606C44.336 31.5497 44.0594 31.0537 43.7393 30.48C41.9927 27.3487 38.3594 20.8322 40.7078 17.4755C41.7878 15.9319 43.9174 15.3136 47.0482 15.6323C46.6319 14.3948 45.5885 12.1022 43.6619 9.82547C41.426 7.18359 37.4641 4.01297 31.2864 3.91172C28.151 3.85922 25.5771 4.82203 23.6449 6.77109C19.3136 11.1398 19.4603 19.0898 19.4622 19.1695C19.4678 19.3918 19.3848 19.6073 19.2316 19.7685C19.0784 19.9297 18.8675 20.0234 18.6452 20.0292C18.4232 20.0336 18.2085 19.9504 18.0474 19.7976C17.8864 19.6447 17.7921 19.4346 17.785 19.2127C17.7757 18.8583 17.6125 10.4794 22.4477 5.59547C24.715 3.30609 27.6949 2.17734 31.3136 2.23453C38.0533 2.34422 42.3907 5.77031 44.8427 8.625C47.5155 11.7361 48.8266 15.173 48.9349 16.3214C49.0211 17.243 48.3133 17.4164 48.2322 17.4333L47.9299 17.4398C45.8172 17.1014 43.0877 16.9997 42.0822 18.4369C40.3357 20.933 43.7472 27.0502 45.2041 29.6625C45.5782 30.3337 45.8482 30.8184 45.9728 31.1203C46.45 32.2772 47.0735 33.0562 47.5741 33.6816C48.0194 34.2384 48.4061 34.7212 48.5482 35.2941C48.6213 35.4131 49.5532 36.6816 54.806 35.5973C56.1864 35.3114 57.0175 35.5636 57.2753 36.3441C57.7741 37.852 55.0253 39.5878 53.5019 40.2956C52.1463 40.9252 49.9839 41.3231 48.1103 41.3231ZM45.8885 39.277C46.0924 39.4439 46.9591 39.7139 48.6616 39.6342C50.2033 39.562 51.8261 39.2245 52.796 38.7741C53.9233 38.2505 54.7188 37.6673 55.1838 37.2328L55.1458 37.2403C51.7 37.9519 49.2588 37.8544 47.8905 36.9506C47.8093 36.8975 47.7309 36.8403 47.6557 36.7791C47.5408 36.8189 47.4222 36.8522 47.3003 36.8864C46.525 37.1044 45.7924 37.3097 45.8885 39.277ZM23.6702 43.7039C22.8185 43.7039 21.925 43.5895 20.9978 43.357C20.7316 43.2905 18.3958 42.6633 18.4268 41.1703C18.4549 39.8034 20.4049 39.4017 21.1394 39.2503C23.7199 38.7192 23.8868 38.5073 24.6888 37.4892C24.9264 37.1878 25.2218 36.8123 25.6253 36.3614C26.9674 34.86 28.233 35.3841 28.7735 35.6081C29.6219 35.9597 30.3283 36.8072 30.6185 37.8206C30.881 38.7375 30.7549 39.6211 30.2636 40.3087C28.668 42.5428 26.381 43.7039 23.6702 43.7039ZM20.2853 41.2486C20.5291 41.4145 20.9435 41.6142 21.4047 41.73C23.6425 42.2897 26.7593 42.3291 28.8986 39.3337C29.1518 38.9789 29.0744 38.5228 29.0055 38.2823C28.8597 37.7733 28.5002 37.3111 28.1313 37.1578C27.6761 36.9694 27.4249 36.8658 26.876 37.4794L26.8755 37.4798C26.5741 37.8192 26.2843 38.1686 26.0064 38.5275C24.9822 39.8273 24.5135 40.2684 21.4774 40.8937C20.8502 41.0231 20.4883 41.153 20.2853 41.2486Z" fill="white"/>
<path d="M26.1301 37.7241C25.9298 37.7238 25.7362 37.6519 25.5843 37.5213C25.4324 37.3907 25.3322 37.21 25.3019 37.012C25.2848 36.9006 25.2727 36.7884 25.2658 36.6759C23.2937 36.6234 21.3953 35.7708 19.9511 34.2633C18.1075 32.34 17.2689 29.6761 17.6495 26.9541C18.0587 24.0253 17.9055 21.4387 17.823 20.0494C17.8005 19.6612 17.7836 19.3809 17.785 19.1855C17.7869 18.9295 17.7911 18.2503 20.0017 17.13C20.7798 16.7358 22.3394 16.0472 24.0447 15.8709C26.8876 15.5756 28.765 16.845 29.3266 19.4433C30.8266 26.3803 29.4447 29.4506 28.4359 31.6927C28.2484 32.1075 28.0722 32.4998 27.9316 32.8786L27.8064 33.2137C27.2781 34.6308 26.8216 35.8542 26.9598 36.7575C26.9782 36.8771 26.9705 36.9992 26.9373 37.1156C26.904 37.2319 26.846 37.3397 26.7672 37.4315C26.6884 37.5233 26.5906 37.597 26.4807 37.6475C26.3707 37.698 26.2511 37.7241 26.1301 37.7241ZM19.4692 19.4297C19.4753 19.5698 19.4861 19.7475 19.4978 19.95C19.5836 21.398 19.7434 24.0923 19.3108 27.1866C19.0019 29.3962 19.6764 31.5525 21.1623 33.1022C22.3305 34.3214 23.867 34.9959 25.4458 35.0006C25.6276 34.2558 25.9201 33.4716 26.2347 32.6273L26.3589 32.2945C26.5192 31.8623 26.7072 31.4452 26.9059 31.0041C27.8701 28.8614 29.0706 26.1947 27.6873 19.7977C27.4201 18.562 26.777 17.8439 25.7219 17.602C23.4105 17.0723 20.1691 18.8095 19.4692 19.4297Z" fill="white"/>
<path d="M24.086 19.0706C24.0471 19.3448 24.588 20.077 25.2935 20.175C25.998 20.2734 26.6013 19.7011 26.6392 19.4269C26.6777 19.1522 26.1372 18.8503 25.4313 18.7519C24.7263 18.6534 24.123 18.7969 24.086 19.0706Z" fill="white"/>
<path d="M25.4467 20.4652C25.3829 20.4652 25.319 20.4608 25.255 20.452C24.812 20.3902 24.3643 20.1113 24.0578 19.7053C23.95 19.5619 23.7732 19.2834 23.8089 19.0322C23.822 18.937 23.8707 18.7992 24.0278 18.6806C24.3071 18.4688 24.8598 18.39 25.4696 18.4753C25.8446 18.5269 26.1929 18.6352 26.4503 18.7791C26.9036 19.0322 26.9368 19.3181 26.9162 19.4653C26.8567 19.89 26.1854 20.4652 25.4467 20.4652ZM24.3662 19.1236C24.4093 19.3111 24.8101 19.8253 25.3318 19.898C25.8573 19.9702 26.2923 19.5553 26.3561 19.4039C26.2951 19.3148 25.9717 19.1095 25.3918 19.0289C24.82 18.9492 24.4548 19.0542 24.3662 19.1236ZM45.541 18.5109C45.579 18.7856 45.0385 19.5178 44.3326 19.6153C43.6281 19.7138 43.0248 19.1414 42.9864 18.8672C42.9489 18.593 43.4898 18.2906 44.1948 18.1922C44.8998 18.0938 45.5026 18.2372 45.541 18.5109Z" fill="white"/>
<path d="M44.1751 19.7662C43.4805 19.7662 42.894 19.2117 42.8486 18.8869C42.7914 18.4692 43.4729 18.1519 44.1756 18.0539C44.8787 17.9555 45.6217 18.075 45.6794 18.4917C45.7056 18.6792 45.5636 18.9675 45.3175 19.2258C45.1558 19.3955 44.8159 19.6898 44.3523 19.7541C44.2936 19.7619 44.2344 19.7659 44.1751 19.7662ZM44.6322 18.3005C44.5062 18.3002 44.3672 18.3103 44.215 18.3309C43.4781 18.4336 43.1087 18.7266 43.1251 18.8484C43.1519 19.0359 43.683 19.5633 44.3139 19.477C44.6936 19.4245 44.9786 19.1761 45.1155 19.0331C45.3283 18.8095 45.4126 18.6009 45.4033 18.5302C45.3892 18.4341 45.1131 18.3005 44.6322 18.3005ZM46.5573 34.3205C46.4055 34.3202 46.2565 34.2788 46.1264 34.2005C45.9963 34.1223 45.8898 34.0102 45.8183 33.8762C45.7469 33.7422 45.7131 33.5913 45.7207 33.4397C45.7283 33.288 45.7768 33.1412 45.8612 33.015C47.5 30.5672 47.199 28.0631 46.908 25.6416C46.7833 24.6023 46.6539 23.5284 46.6876 22.4948C46.7214 21.4327 46.8564 20.558 46.9867 19.7119C47.1405 18.7144 47.2853 17.7722 47.2253 16.657C47.2134 16.435 47.2902 16.2173 47.4387 16.0518C47.5873 15.8862 47.7954 15.7865 48.0175 15.7744C48.2395 15.7629 48.457 15.8398 48.6224 15.9882C48.7878 16.1367 48.8877 16.3446 48.9001 16.5666C48.97 17.8556 48.8045 18.9291 48.6447 19.9673C48.5219 20.7642 48.3948 21.5878 48.3644 22.5488C48.3348 23.4548 48.4511 24.42 48.5739 25.4414C48.8861 28.0397 49.2395 30.9844 47.2553 33.9483C47.1785 34.0629 47.0747 34.1569 46.9529 34.2218C46.8312 34.2867 46.6953 34.3206 46.5573 34.3205Z" fill="white"/>
</g>
<defs>
<clipPath id="clip0_229_805">
<rect width="60" height="60" fill="white"/>
</clipPath>
</defs>
</svg>
