<svg width="60" height="60" viewBox="0 0 60 60" fill="none" xmlns="http://www.w3.org/2000/svg">
<path d="M30.7313 34.4813C33.6847 34.4813 36.079 32.1391 36.079 29.25C36.079 26.3609 33.6847 24.0188 30.7313 24.0188C27.7778 24.0188 25.3835 26.3609 25.3835 29.25C25.3835 32.1391 27.7778 34.4813 30.7313 34.4813Z" fill="#61DAFB"/>
<path d="M30.7313 48.4875C34.9289 52.4813 39.0691 54.8438 42.4043 54.8438C43.4968 54.8438 44.5318 54.6188 45.3944 54.1125C48.3845 52.425 49.4771 48.2063 48.442 42.1875C48.2695 41.1188 48.0395 40.05 47.752 38.925C48.902 38.5875 49.9371 38.25 50.9721 37.9125C56.7799 35.7188 60 32.6813 60 29.3625C60 25.9875 56.7799 22.95 50.9721 20.8125C49.9371 20.4188 48.902 20.0813 47.752 19.8C48.0395 18.675 48.2695 17.6063 48.442 16.5375C49.4196 10.4063 48.327 6.13125 45.3369 4.44375C44.4743 3.9375 43.4393 3.7125 42.3468 3.7125C39.0691 3.7125 34.8714 6.075 30.6738 10.0688C26.5336 6.075 22.3934 3.7125 19.0583 3.7125C17.9657 3.7125 16.9307 3.9375 16.0681 4.44375C13.078 6.13125 11.9855 10.35 13.0205 16.3688C13.193 17.4375 13.423 18.5063 13.7105 19.6313C12.5605 19.9688 11.5254 20.3063 10.4904 20.6438C4.68266 22.8375 1.46252 25.875 1.46252 29.1938C1.46252 32.5688 4.68266 35.6063 10.4904 37.7438C11.5254 38.1375 12.5605 38.475 13.7105 38.7563C13.423 39.8813 13.193 40.95 13.0205 42.0188C12.043 48.0375 13.1355 52.3125 16.0681 53.9438C16.9307 54.45 17.9657 54.675 19.0583 54.675C22.3934 54.7875 26.5336 52.425 30.7313 48.4875ZM27.5111 40.8938C28.5462 40.95 29.6387 40.95 30.7313 40.95C31.8238 40.95 32.9164 40.95 33.9514 40.8938C32.9164 42.2438 31.8238 43.4813 30.7313 44.6625C29.6387 43.4813 28.5462 42.2438 27.5111 40.8938ZM20.3808 35.1C20.9558 36.0563 21.4734 36.9563 22.1059 37.8563C20.3233 37.6313 18.6558 37.35 17.0457 37.0125C17.5632 35.4938 18.1382 33.9188 18.8283 32.3438C19.2883 33.2438 19.8058 34.2 20.3808 35.1ZM17.0457 21.5438C18.6558 21.2063 20.3233 20.925 22.1059 20.7C21.5309 21.6 20.9558 22.5 20.3808 23.4563C19.8058 24.4125 19.2883 25.3125 18.8283 26.2688C18.0807 24.6375 17.5057 23.0625 17.0457 21.5438ZM20.2083 29.25C20.9558 27.7313 21.7609 26.2125 22.6809 24.6938C23.5435 23.2313 24.521 21.7688 25.4985 20.3063C27.2236 20.1938 28.9487 20.1375 30.7313 20.1375C32.5713 20.1375 34.2964 20.1938 35.964 20.3063C36.999 21.7688 37.9191 23.2313 38.7816 24.6938C39.7016 26.2125 40.5067 27.7313 41.2542 29.25C40.5067 30.7688 39.7016 32.2875 38.7816 33.8063C37.9191 35.2688 36.9415 36.7313 35.964 38.1938C34.2389 38.3063 32.5138 38.3625 30.7313 38.3625C28.8912 38.3625 27.1661 38.3063 25.4985 38.1938C24.4635 36.7313 23.5435 35.2688 22.6809 33.8063C21.7609 32.2875 20.9558 30.7688 20.2083 29.25ZM42.6918 26.2125L41.1392 23.4C40.5642 22.4438 40.0467 21.5438 39.4141 20.6438C41.1967 20.8688 42.8643 21.15 44.4743 21.4875C43.9568 23.0625 43.3818 24.6375 42.6918 26.2125ZM42.6918 32.2875C43.3818 33.8625 43.9568 35.4375 44.4743 36.9563C42.8643 37.2938 41.1967 37.575 39.4141 37.8C39.9892 36.9 40.5642 36 41.1392 35.0438C41.6567 34.2 42.1742 33.2438 42.6918 32.2875ZM44.0143 51.8063C43.5543 52.0875 42.9793 52.2 42.3468 52.2C39.5291 52.2 36.0215 49.95 32.5713 46.575C34.2389 44.8313 35.849 42.8625 37.459 40.6688C40.1617 40.4438 42.7493 40.05 45.1644 39.4875C45.4519 40.5 45.6244 41.5125 45.7969 42.525C46.6019 47.3063 45.9694 50.7375 44.0143 51.8063ZM47.0045 22.1625C53.4447 23.9625 57.2974 26.7188 57.2974 29.25C57.2974 31.4438 54.6523 33.6375 49.9946 35.3813C49.0745 35.7188 48.0395 36.0563 47.0045 36.3375C46.2569 34.0313 45.3369 31.6688 44.1868 29.25C45.3369 26.8313 46.3144 24.4688 47.0045 22.1625ZM42.4043 6.3C43.0368 6.3 43.5543 6.4125 44.0718 6.69375C45.9694 7.7625 46.6594 11.1375 45.8544 15.975C45.6819 16.9313 45.4519 17.9438 45.2219 19.0125C42.8068 18.5063 40.2192 18.1125 37.5166 17.8313C35.964 15.6375 34.2964 13.6688 32.6288 11.925C36.079 8.60625 39.5866 6.3 42.4043 6.3ZM33.9514 17.6063C32.9164 17.55 31.8238 17.55 30.7313 17.55C29.6387 17.55 28.5462 17.55 27.5111 17.6063C28.5462 16.2563 29.6387 15.0188 30.7313 13.8375C31.8238 15.0188 32.9164 16.3125 33.9514 17.6063ZM17.4482 6.69375C17.9082 6.4125 18.4832 6.3 19.1158 6.3C21.9334 6.3 25.441 8.55 28.8912 11.925C27.2236 13.6688 25.6135 15.6375 24.0035 17.8313C21.3009 18.0563 18.7133 18.45 16.2982 19.0125C16.0106 18 15.8381 16.9875 15.6656 15.975C14.8606 11.1938 15.4931 7.81875 17.4482 6.69375ZM14.4581 36.3375C8.0178 34.5375 4.16514 31.7813 4.16514 29.25C4.16514 27.0563 6.81025 24.8625 11.4679 23.1188C12.388 22.7813 13.423 22.4438 14.4581 22.1625C15.2056 24.4688 16.1256 26.8313 17.2757 29.25C16.1256 31.6688 15.1481 34.0875 14.4581 36.3375ZM15.6656 42.525C15.8381 41.5688 16.0681 40.5563 16.2982 39.4875C18.7133 39.9938 21.3009 40.3875 24.0035 40.6688C25.556 42.8625 27.2236 44.8313 28.8912 46.575C25.441 49.8938 21.9334 52.2 19.1158 52.2C18.4832 52.2 17.9657 52.0875 17.4482 51.8063C15.4931 50.7375 14.8606 47.3063 15.6656 42.525Z" fill="#61DAFB"/>
</svg>
