<svg width="60" height="60" viewBox="0 0 60 60" fill="none" xmlns="http://www.w3.org/2000/svg">
<g clip-path="url(#clip0_229_800)">
<path fill-rule="evenodd" clip-rule="evenodd" d="M30 0C46.5684 0 60 13.4316 60 30C60 46.5684 46.5684 60 30 60C13.4316 60 0 46.5684 0 30C0 13.4316 13.4316 0 30 0Z" fill="#CC6699"/>
<path d="M48.818 12.8405C47.4595 7.51219 38.625 5.76094 30.2634 8.73141C25.2876 10.4991 19.9008 13.2736 16.0275 16.897C11.422 21.2044 10.6875 24.9534 10.9903 26.5205C12.0581 32.048 19.6322 35.6611 22.7461 38.3423V38.3583C21.8273 38.8102 15.1078 42.2109 13.5351 45.6877C11.8758 49.3556 13.7995 51.9877 15.0726 52.342C19.0186 53.4398 23.0672 51.4655 25.2431 48.2198C27.3431 45.0877 27.1683 41.0433 26.2556 39.0314C27.5142 38.6991 28.9819 38.5505 30.847 38.7684C36.1092 39.3825 37.1419 42.6684 36.9445 44.0438C36.7472 45.4191 35.6433 46.1752 35.2744 46.4034C34.9055 46.6317 34.7925 46.7109 34.8234 46.8806C34.8684 47.1272 35.0391 47.1183 35.3536 47.0648C35.7867 46.9917 38.1173 45.9464 38.2167 43.4077C38.3433 40.185 35.2551 36.5798 29.7862 36.6741C27.5344 36.7125 26.1178 36.9272 25.095 37.3073C25.0189 37.2206 24.9414 37.1352 24.8625 37.0509C21.4819 33.4439 15.232 30.892 15.4969 26.0428C15.5934 24.2803 16.2061 19.6378 27.5062 14.0072C36.7631 9.39469 44.1736 10.6636 45.4547 13.4766C47.2837 17.4956 41.4937 24.9656 31.8806 26.0428C28.2183 26.4534 26.2894 25.0341 25.8098 24.5053C25.3045 23.9489 25.2295 23.9236 25.0411 24.0281C24.7336 24.1983 24.9286 24.6895 25.0411 24.9825C25.328 25.7292 26.5059 27.0544 28.5141 27.713C30.2803 28.2928 34.5806 28.6111 39.7814 26.5997C45.6056 24.3464 50.1539 18.0792 48.818 12.8405ZM24.038 39.9933C24.4744 41.6077 24.427 43.1133 23.9756 44.4769C23.617 45.5611 23.0006 46.5445 22.2309 47.3841C20.4876 49.2858 18.0525 50.0048 17.0081 49.3992C15.8803 48.7453 16.4456 46.0641 18.4659 43.928C20.6405 41.6297 23.7684 40.1522 23.7684 40.1522L23.7637 40.1428C23.8537 40.0944 23.9451 40.0448 24.038 39.9933Z" fill="white"/>
</g>
<defs>
<clipPath id="clip0_229_800">
<rect width="60" height="60" fill="white"/>
</clipPath>
</defs>
</svg>
